<?xml version="1.0" standalone="no"?>
<!DOCTYPE svg PUBLIC "-//W3C//DTD SVG 20010904//EN"
 "http://www.w3.org/TR/2001/REC-SVG-20010904/DTD/svg10.dtd">
<svg version="1.0" xmlns="http://www.w3.org/2000/svg"
 width="559.000000pt" height="571.000000pt" viewBox="0 0 559.000000 571.000000"
 preserveAspectRatio="xMidYMid meet">

<g transform="translate(0.000000,571.000000) scale(0.100000,-0.100000)"
fill="#000000" stroke="none">
<path d="M2595 5364 c-16 -2 -73 -9 -125 -15 -701 -79 -1368 -491 -1765 -1089
-220 -331 -351 -679 -406 -1080 -17 -124 -17 -496 0 -620 125 -910 704 -1665
1536 -2003 316 -129 593 -182 945 -182 217 1 311 9 495 46 972 194 1743 958
1949 1929 41 192 50 294 50 520 0 226 -9 328 -50 520 -202 955 -949 1708
-1904 1920 -165 37 -296 51 -495 55 -110 2 -213 2 -230 -1z m-305 -1624 c33 0
60 -3 60 -7 0 -5 -26 -8 -57 -8 l-58 0 -3 -170 c-4 -233 4 -265 68 -265 32 0
95 48 105 81 8 25 22 24 30 -2 10 -30 -38 -76 -89 -87 -75 -15 -142 12 -173
71 -14 26 -18 65 -21 204 -4 167 -5 172 -25 176 -15 3 -11 5 10 6 42 1 61 30
76 112 l12 63 3 -87 3 -87 59 0z m1140 116 c6 -8 10 -25 8 -38 -2 -19 -9 -23
-38 -23 -29 0 -36 4 -38 23 -4 28 14 52 38 52 10 0 23 -7 30 -14z m-2120 -292
l0 -267 79 7 c43 3 101 13 127 21 64 19 64 19 64 -10 l0 -25 -175 0 -175 0 0
270 0 270 40 0 40 0 0 -266z m628 171 c47 -20 79 -50 105 -100 33 -60 31 -194
-2 -252 -39 -68 -90 -97 -175 -101 -85 -4 -147 22 -183 77 -63 94 -56 249 15
325 58 61 161 83 240 51z m865 -10 c64 -30 110 -124 93 -190 l-6 -25 -171 0
-171 0 7 -42 c15 -100 81 -178 148 -178 43 0 111 35 147 76 23 27 32 31 36 20
11 -29 -2 -51 -44 -74 -94 -52 -225 -36 -294 36 -44 46 -55 67 -69 132 -22
103 27 200 125 247 60 28 138 28 199 -2z m1026 7 c71 -35 76 -52 79 -258 l4
-184 -41 0 c-39 0 -41 2 -41 30 0 34 -11 38 -31 13 -23 -26 -91 -53 -139 -53
-149 0 -192 180 -66 272 49 36 111 64 175 80 25 6 49 14 54 17 11 11 -13 70
-33 81 -45 24 -120 2 -188 -55 l-30 -25 -6 26 c-9 33 -3 39 59 57 70 22 162
21 204 -1z m476 9 c24 -5 31 -12 33 -35 3 -25 1 -28 -15 -21 -100 43 -191 57
-247 35 -29 -11 -44 -53 -27 -74 6 -7 60 -39 121 -71 169 -90 216 -154 167
-228 -32 -49 -71 -62 -187 -62 -125 1 -160 12 -153 49 l5 25 51 -26 c58 -29
156 -41 199 -24 41 15 62 54 48 83 -17 33 -45 54 -125 95 -161 82 -209 131
-184 187 11 24 54 53 97 66 32 10 174 10 217 1z m-1255 -108 l1 -108 15 44
c38 107 101 171 170 171 40 0 44 -2 44 -25 0 -23 -3 -24 -49 -22 -66 3 -97
-21 -141 -108 -33 -65 -35 -76 -38 -182 l-4 -113 -39 0 -39 0 0 225 0 225 40
0 40 0 0 -107z m390 -118 l0 -225 -40 0 -40 0 0 225 0 225 40 0 40 0 0 -225z
m-600 -745 c12 -22 0 -55 -22 -63 -39 -13 -74 37 -48 68 18 21 57 19 70 -5z
m-652 -20 c26 -10 32 -17 32 -42 l0 -29 -30 21 c-62 44 -111 59 -162 50 -95
-18 -156 -73 -183 -162 -45 -154 20 -308 151 -357 82 -31 89 -30 187 28 l37
23 0 -30 c0 -29 -3 -31 -57 -42 -77 -16 -197 -8 -253 17 -125 55 -187 204
-146 347 26 89 88 148 191 183 46 15 182 11 233 -7z m429 -106 c49 -36 53 -55
53 -251 l0 -183 -40 0 c-38 0 -40 2 -40 30 l0 30 -44 -32 c-79 -55 -178 -49
-231 14 -34 40 -35 120 -2 169 32 48 106 95 195 123 67 21 77 27 80 49 2 17
-5 31 -24 46 -47 37 -117 23 -187 -38 l-36 -32 -7 26 c-8 33 2 43 62 60 72 21
186 15 221 -11z m1113 8 c61 -30 70 -62 70 -264 l0 -178 -40 0 c-38 0 -40 1
-40 32 0 29 -1 30 -17 16 -62 -54 -155 -72 -218 -42 -88 41 -97 160 -18 236
46 43 86 64 178 94 81 25 93 47 51 89 -43 43 -117 29 -189 -35 -30 -26 -38
-29 -42 -16 -3 9 -7 22 -9 30 -5 14 43 37 99 49 52 12 142 6 175 -11z m-890
-217 l0 -225 -40 0 -40 0 0 218 c0 120 3 222 7 225 3 4 21 7 40 7 l33 0 0
-225z m216 125 c48 -56 90 -99 95 -98 17 6 110 124 126 161 11 23 24 37 35 37
10 0 18 -3 18 -6 0 -4 -38 -50 -85 -104 -47 -54 -85 -101 -85 -105 0 -4 37
-51 83 -104 123 -144 116 -131 69 -131 -38 0 -43 4 -127 103 -48 56 -92 102
-96 102 -14 0 -110 -118 -132 -162 -16 -32 -27 -43 -44 -43 -21 0 -10 15 73
110 l96 110 -74 86 c-40 47 -83 99 -96 115 l-23 29 40 0 c38 0 44 -4 127 -100z"/>
<path d="M1800 3717 c-45 -30 -67 -70 -79 -145 -24 -150 38 -282 132 -282 152
0 197 333 57 428 -42 28 -68 28 -110 -1z"/>
<path d="M2653 3725 c-39 -17 -79 -75 -92 -135 -17 -74 -25 -70 123 -70 l134
0 6 26 c15 59 -17 144 -67 174 -37 23 -60 24 -104 5z"/>
<path d="M3725 3601 c-93 -44 -125 -89 -125 -177 0 -118 93 -155 198 -77 l32
24 0 130 c0 127 0 129 -22 129 -13 0 -50 -13 -83 -29z"/>
<path d="M2500 2524 c-96 -44 -133 -94 -133 -179 0 -64 15 -93 57 -110 39 -16
93 -6 139 27 l27 19 0 135 c0 154 2 151 -90 108z"/>
<path d="M3649 2535 c-55 -20 -112 -61 -132 -94 -43 -73 -27 -175 32 -206 36
-18 68 -13 129 22 l42 24 0 134 c0 151 2 147 -71 120z"/>
</g>
</svg>
